<?xml version="1.0" encoding="UTF-8"?>
<svg id="Layer_1" data-name="Layer 1" xmlns="http://www.w3.org/2000/svg" xmlns:xlink="http://www.w3.org/1999/xlink" viewBox="0 0 578.54 576.91">
  <defs>
    <style>
      .cls-1 {
        fill: url(#linear-gradient-2);
      }

      .cls-2, .cls-3, .cls-4 {
        fill: #fff;
      }

      .cls-5 {
        fill: #09ce67;
        opacity: .6;
      }

      .cls-5, .cls-6, .cls-3, .cls-7, .cls-4, .cls-8, .cls-9 {
        isolation: isolate;
      }

      .cls-10 {
        fill: #006638;
      }

      .cls-6 {
        opacity: .42;
      }

      .cls-6, .cls-7, .cls-11, .cls-8, .cls-9 {
        fill: #00a65c;
      }

      .cls-12 {
        opacity: .89;
      }

      .cls-13 {
        fill: #00934d;
      }

      .cls-3 {
        opacity: .5;
      }

      .cls-14 {
        fill: #00512d;
      }

      .cls-15 {
        fill: #40bc85;
      }

      .cls-7 {
        opacity: .12;
      }

      .cls-16 {
        fill: url(#linear-gradient-5);
      }

      .cls-4 {
        opacity: .67;
      }

      .cls-17 {
        fill: #038e4c;
      }

      .cls-18 {
        fill: #014926;
      }

      .cls-19 {
        fill: #00331c;
      }

      .cls-20 {
        fill: url(#linear-gradient-3);
      }

      .cls-21 {
        fill: url(#linear-gradient);
      }

      .cls-22 {
        fill: url(#linear-gradient-4);
      }

      .cls-23 {
        fill: #40c184;
      }

      .cls-8 {
        opacity: .29;
      }

      .cls-9 {
        opacity: .18;
      }
    </style>
    <linearGradient id="linear-gradient" x1="367.19" y1="375.1" x2="393.26" y2="375.1" gradientTransform="translate(0 567.43) scale(1 -1)" gradientUnits="userSpaceOnUse">
      <stop offset="0" stop-color="#fe7062"/>
      <stop offset="1" stop-color="#ff928e"/>
    </linearGradient>
    <linearGradient id="linear-gradient-2" x1="367.19" y1="314.33" x2="393.26" y2="314.33" xlink:href="#linear-gradient"/>
    <linearGradient id="linear-gradient-3" x1="367.64" y1="253.51" x2="393.71" y2="253.51" xlink:href="#linear-gradient"/>
    <linearGradient id="linear-gradient-4" x1="367.79" y1="192.74" x2="393.86" y2="192.74" xlink:href="#linear-gradient"/>
    <linearGradient id="linear-gradient-5" x1="367.85" y1="131.97" x2="393.91" y2="131.97" xlink:href="#linear-gradient"/>
  </defs>
  <path class="cls-7" d="M551.03,389.5c-58.27,135.53-212.07,193.74-332.57,183.81-32.89-2.72-99.09-8.16-150.79-56.81C-31.59,423.09-16.31,227.81,78.71,112.85,90.94,98.04,175.66-1.13,307.65,.19c96.64,.97,164.47,55.3,172.73,62.06,10.42,8.55,33.41,28.86,54.11,61.09,48.67,75.76,52.96,181.48,16.54,266.16Z"/>
  <path class="cls-8" d="M2,431.11c55.74,182.68,495.62,197.43,575,23.13,5.44-11.95-4.16-25.07-18.54-25.33L12.69,418.83c-7.23-.14-12.61,6.01-10.69,12.28Z"/>
  <g>
    <path class="cls-9" d="M381.96,428.78S401.55,167.38,507.22,10.4c7.11-10.55,23.58-9.39,29.04,2.08,36.44,76.71,121.5,313.27-154.3,416.3Z"/>
    <path class="cls-3" d="M405.38,408.57c-.54,.7,.47,1.52,1.11,.91,23.32-22.95,110.16-131.45,116.64-322.52,.02-.62-.93-.7-1.01-.1-5.6,44.9-31.45,211.27-116.75,321.71Z"/>
  </g>
  <g>
    <g>
      <g>
        <path class="cls-9" d="M85.75,164.29c4.76-9.91,8.16-20.27,8.94-31.53,2-28.42-14.52-54.6-26.67-79.07C56.85,31.18,48.57-2.33,86.2,.66c29.99,2.37,65.25,32.26,69.27,63.44,4.76,36.89-13.2,83.4,8.09,116.91,29.78,46.88,51.27,36.13,51.27,115.24,0,33.8-18.72,52.44-40.17,62.72-33.84,16.21-74.21,9.66-101.17-16.44-23.79-23.09-37.96-56.23-33.16-89.52,4.84-33.62,31.21-59.09,45.42-88.73Z"/>
        <path class="cls-6" d="M110.92,418.6c.47,0,.91-.31,1.01-.8,18.66-74.48,28.82-141.98,30.2-200.66,1.09-46.98-3.4-88.45-13.37-123.23C111.72,34.48,85.01,15.41,83.88,14.62c-.47-.33-1.13-.21-1.46,.27s-.21,1.13,.27,1.46c.27,.19,27.33,19.59,44.14,78.41,15.53,54.38,25.19,154.46-16.91,322.52-.14,.56,.21,1.13,.76,1.28,.08,.04,.16,.04,.25,.04Z"/>
      </g>
      <path class="cls-8" d="M55.86,80.89c1.44-.39,3.05-.51,4.74-.33,9.37,1.07,13.24,10.98,15.98,18.7,2.37,6.63,5.15,14.67,3.75,21.83-1.5,7.77-9.74,14.09-15.74,6.22-6.8-8.96-16.99-22.7-17.05-34.56,0-5.89,3.32-10.48,8.32-11.86Z"/>
    </g>
    <g>
      <path class="cls-8" d="M3.38,344.37c-4.12-27.17,5.75-58.37,10.69-87.11,2.62-15.2,3.81-30.28,1.38-45.58-2.43-15.22-9.58-31.68-2.99-46.84,13.29-30.55,44.86-16.64,62.97,6.34,20.99,26.69,26.74,70.3,34.71,103.87,4.8,20.25,12.05,41.01,14.58,61.63,4.2,34.17-3.52,57.9-19.88,73.92-15.67,15.37-39.55,18.56-58.74,7.87-17.34-9.64-36.07-30.28-42.72-74.11Z"/>
      <path class="cls-6" d="M75.64,470.45c-.06,0-.12,0-.16-.02-.58-.1-.95-.64-.84-1.19,.06-.41,6.9-41.71,7.09-98.72,.16-52.59-5.48-129.7-33.24-198.37-.21-.54,.04-1.13,.58-1.36,.54-.21,1.13,.04,1.36,.58,27.91,69,33.57,146.43,33.41,199.22-.19,57.18-7.04,98.62-7.11,99.03-.14,.47-.58,.84-1.07,.84Z"/>
    </g>
  </g>
  <g>
    <path class="cls-11" d="M543.3,494.83h-106.51v-213.56h110.73v209.33c0,2.33-1.89,4.22-4.22,4.22Z"/>
    <g class="cls-12">
      <path class="cls-4" d="M523.9,436.83h-62.82c-.12,0-.23-.1-.23-.23v-97.08c0-.12,.1-.23,.23-.23h62.82c.12,0,.23,.1,.23,.23v97.08c0,.12-.1,.23-.23,.23Z"/>
      <g>
        <path class="cls-23" d="M519.39,431.56h-24.31c-.06,0-.12-.06-.12-.12v-86.76c0-.06,.06-.12,.12-.12h24.31c.06,0,.12,.06,.12,.12v86.74c0,.08-.06,.14-.12,.14Z"/>
        <path class="cls-23" d="M489.89,431.56h-24.31c-.06,0-.12-.06-.12-.12v-86.76c0-.06,.06-.12,.12-.12h24.31c.06,0,.12,.06,.12,.12v86.74c.02,.08-.04,.14-.12,.14Z"/>
      </g>
    </g>
    <path class="cls-14" d="M568.37,298.15h-136.83l-5.58-98.5,113.12-2.14,34.69,92.19c1.81,3.93-1.05,8.44-5.4,8.44Z"/>
    <path class="cls-10" d="M539.53,202.04l-108.73-1.22,.68-11,101.63,.78c3.93,.25,6.92,3.42,6.69,7.11l-.27,4.33Z"/>
  </g>
  <g>
    <path class="cls-11" d="M52.63,494.09h106.14v-213.56H48.04v208.96c0,2.53,2.06,4.59,4.59,4.59Z"/>
    <g class="cls-12">
      <path class="cls-4" d="M71.66,436.09h62.8c.12,0,.23-.1,.23-.23v-97.08c0-.12-.1-.23-.23-.23h-62.8c-.12,0-.23,.1-.23,.23v97.08c0,.12,.1,.23,.23,.23Z"/>
      <g>
        <path class="cls-23" d="M76.17,430.82h24.31c.06,0,.12-.06,.12-.12v-86.74c0-.06-.06-.12-.12-.12h-24.31c-.06,0-.12,.06-.12,.12v86.74c0,.06,.06,.12,.12,.12Z"/>
        <path class="cls-23" d="M105.67,430.82h24.31c.06,0,.12-.06,.12-.12v-86.74c0-.06-.06-.12-.12-.12h-24.31c-.06,0-.12,.06-.12,.12v86.74c-.02,.06,.04,.12,.12,.12Z"/>
      </g>
    </g>
    <path class="cls-14" d="M27.19,297.41H164.02l5.58-98.5-113.12-2.14-34.69,92.19c-1.81,3.93,1.05,8.44,5.4,8.44Z"/>
    <path class="cls-10" d="M56.03,201.3l108.73-1.22-.68-11-101.63,.78c-3.93,.25-6.92,3.42-6.69,7.11l.27,4.33Z"/>
  </g>
  <path class="cls-15" d="M143.47,267.62v218.54c0,9.6,7.79,17.36,17.36,17.36H445.57c3.07,0,5.56-2.49,5.56-5.56v-230.34H143.47Z"/>
  <polygon class="cls-15" points="454.73 135.68 452.12 133.7 452.12 130.94 448.47 130.94 297.31 16.68 144.45 130.94 144.45 267.62 452.12 267.62 452.12 149.76 454.73 135.68"/>
  <rect class="cls-11" x="364.79" y="29.97" width="25.46" height="41.44"/>
  <path class="cls-14" d="M398.63,36.68h-41.13v-11.47c0-.7,.56-1.26,1.26-1.26h37.96c1.05,0,1.92,.87,1.92,1.92v10.81h0Z"/>
  <path class="cls-14" d="M134.16,152.71L297.43,27.5l154.98,120.21c5.62,4.37,13.9,1.32,15.32-5.68l2.18-10.63L297.43,0,130.49,127.52c-2.99,2.29-4.08,6.28-2.64,9.76l6.3,15.43Z"/>
  <path class="cls-13" d="M458.26,282.43H136.34c-.91,0-1.63-.72-1.63-1.63v-14.36c0-.91,.72-1.63,1.63-1.63H458.26c.91,0,1.63,.72,1.63,1.63v14.36c0,.89-.72,1.63-1.63,1.63Z"/>
  <path class="cls-18" d="M200.83,151.19l200.17,3.52c11.04,.19,20,9,20.37,20.04l9.68,290.47c.29,8.63-6.63,15.8-15.28,15.8l-229.48,.14c-8.12,0-14.67-6.65-14.52-14.77l5.13-292.07c.21-13.02,10.94-23.36,23.93-23.13Z"/>
  <path class="cls-17" d="M219.88,476.89h0l-25.66-.78c-8.63-.27-15.55-7.52-15.39-16.15l.68-38.76c0-.37,.31-.64,.66-.64,.37,.02,.66,.31,.64,.66l-.68,38.76c-.14,7.93,6.2,14.58,14.13,14.81l25.66,.78c.37,.02,.64,.31,.64,.68-.02,.37-.33,.66-.68,.64Z"/>
  <path class="cls-5" d="M204.29,156.46c26.24,4.04,116.5,16.64,191.39,12.21,3.42-.21,6.32,2.43,6.45,5.85l9.99,280.79c.14,3.85-2.86,7.09-6.71,7.25-31.49,1.32-161.15,6.22-207.27,.58-2.8-.35-4.9-2.74-4.86-5.58l3.44-294.67c.04-4.02,3.6-7.04,7.58-6.43Z"/>
  <path class="cls-19" d="M314.01,113.6c-7.15-5.15-13.43-5.17-17.88-3.93-4.06,1.11-6.74,4.96-6.43,9.17l1.54,20.87,22.68,2.41s14.09-18.39,.08-28.51Zm-10.28,16.62c-3.13-.06-5.62-2.64-5.56-5.77s2.64-5.62,5.77-5.56,5.62,2.64,5.56,5.77c-.06,3.13-2.64,5.62-5.77,5.56Z"/>
  <path class="cls-17" d="M293.27,131.45c-.39-.14-.68-.51-.72-.97l-.25-3.32c-.04-.62,.41-1.15,1.03-1.19,.62-.04,1.15,.41,1.22,1.03l.25,3.32c.04,.62-.41,1.15-1.03,1.19-.16,.04-.33,0-.49-.06Zm-.47-6.51c-.39-.14-.68-.51-.72-.97l-.19-2.51c-.31-4.26,2.43-8.2,6.55-9.33,2.82-.78,5.71-.84,8.59-.21,.6,.14,.99,.74,.84,1.34-.14,.6-.74,.99-1.34,.84-2.51-.56-5.05-.49-7.5,.16-3.09,.84-5.15,3.79-4.9,7l.19,2.53c.04,.62-.41,1.15-1.03,1.19-.19,.02-.35,0-.49-.06Z"/>
  <path class="cls-19" d="M260.03,152.61l.19-10.46c.06-3.63,3.11-6.47,6.71-6.26l72.17,3.75c3.19,.16,5.75,2.74,5.89,5.95l.43,10.07-85.4-3.05Z"/>
  <path class="cls-17" d="M263.59,149.89c-.43-.16-.72-.58-.72-1.07l.08-4.24c.02-1.73,.74-3.36,2-4.57,1.26-1.22,2.9-1.85,4.63-1.83l11.41,.21c.62,.02,1.11,.51,1.11,1.15-.02,.62-.51,1.11-1.15,1.11l-11.41-.21c-2.35-.04-4.3,1.83-4.35,4.18l-.08,4.24c-.02,.62-.51,1.11-1.15,1.11-.12-.02-.25-.04-.37-.08Z"/>
  <path class="cls-19" d="M237.45,148.36l126.28,2.2c4.53,.08,8.36,3.42,9.06,7.91l.1,.62c.76,4.92-3.09,9.33-8.05,9.25l-129.56-2.27c-2.97-.06-5.31-2.57-5.11-5.56l.37-5.79c.23-3.63,3.27-6.43,6.9-6.36Z"/>
  <g>
    <path class="cls-2" d="M392.08,213.3h-.06l-22.53,.12c-3.25,.02-5.95-2.18-6.3-5.11l-2.27-18.87c-.14-1.13,.21-2.25,.93-3.15,.82-1.01,2.08-1.65,3.46-1.77h0c1.89-.16,4.51-.41,7.39-.7,6.26-.62,13.37-1.34,17.53-1.44h.08c2.99-.04,5.58,1.73,6.34,4.37,1.24,4.33,1.26,12.54,1.17,21.3-.02,2.86-2.6,5.21-5.75,5.25Zm-26.61-26.94c-.89,.08-1.67,.47-2.18,1.09-.41,.51-.62,1.13-.54,1.77l2.27,18.87c.25,2,2.16,3.5,4.47,3.48l22.53-.12h.04c2.16-.04,3.91-1.57,3.93-3.46,.08-8.61,.08-16.68-1.09-20.78-.51-1.81-2.49-3.13-4.61-3.03-4.1,.1-11.47,.84-17.4,1.44-2.88,.33-5.5,.58-7.42,.74h0Z"/>
    <path class="cls-15" d="M367.92,188.21c4.74-.39,14.99-1.59,19.88-1.73,2.06-.06,3.89,1.17,4.41,2.95,.99,3.46,.97,10.4,.91,16.81-.02,1.92-1.75,3.48-3.91,3.48l-18,.1c-2.2,.02-4.08-1.46-4.3-3.44l-1.81-15.08c-.19-1.52,1.09-2.95,2.84-3.09Z"/>
    <path class="cls-21" d="M368.93,191.18h0c1.65-1.01,3.81-.45,4.78,1.24l4.55,7.91c.45,.78,1.63,.72,1.98-.12l10.65-24.7c.54-1.24,2.37-.84,2.37,.49,0,7.5-1.77,21.79-13.59,33.92,0,0-6.65-2.47-12.13-14.07-.78-1.71-.19-3.73,1.4-4.68Z"/>
  </g>
  <g>
    <path class="cls-2" d="M203.69,203c-.51-.28-.91-.64-1.18-1.1-.28-.46-.41-.96-.41-1.51,0-.51,.08-1,.23-1.47s.38-.93,.68-1.37c.3-.44,.67-.88,1.1-1.31-.13-.12-.26-.25-.41-.38-.15-.13-.3-.27-.46-.41l1.57-1.88c.5,.4,1,.85,1.5,1.34,.5,.49,.97,1.02,1.39,1.59,.42,.56,.76,1.15,1.01,1.77,.25,.62,.38,1.25,.38,1.9,0,.6-.15,1.14-.46,1.64-.31,.49-.73,.88-1.26,1.18-.54,.29-1.15,.44-1.83,.44-.72,0-1.33-.14-1.85-.42Zm2.66-2.48c.18-.17,.27-.4,.27-.68,0-.3-.08-.63-.25-.99-.17-.36-.45-.72-.83-1.07-.38,.35-.66,.71-.83,1.07-.17,.37-.26,.7-.26,.99,0,.27,.09,.5,.27,.67,.18,.17,.46,.26,.82,.26s.63-.09,.81-.26Z"/>
    <path class="cls-2" d="M214.11,196.72c.32,1.03,.58,1.97,.76,2.81,.18,.84,.27,1.62,.27,2.35,0,1-.2,1.9-.59,2.7-.39,.8-1.01,1.51-1.85,2.14-.84,.63-1.94,1.19-3.29,1.68l-1.15-2.37c1.02-.36,1.84-.73,2.46-1.12s1.07-.82,1.35-1.31c.28-.49,.42-1.06,.42-1.72,0-.54-.08-1.18-.23-1.91-.15-.73-.38-1.53-.67-2.4l2.5-.85Z"/>
    <path class="cls-2" d="M219.45,190.9v8.15c0,.6,.12,1.03,.38,1.27s.74,.37,1.46,.37v2.63c-1.41,0-2.51-.35-3.3-1.06-.79-.71-1.18-1.76-1.18-3.16v-8.2h2.64Z"/>
    <path class="cls-2" d="M226.78,195.07c.48,.18,1.01,.39,1.58,.64,.57,.25,1.19,.5,1.85,.76,.66,.26,1.4,.47,2.21,.64v2.1l-3.86,2.58c-.84,.55-1.69,.95-2.56,1.18-.87,.23-1.82,.35-2.85,.35h-1.85c-.12,0-.21-.09-.27-.27-.06-.18-.09-.53-.09-1.05s.03-.88,.09-1.05c.06-.18,.15-.26,.27-.26h2.36c.49,0,.94-.03,1.35-.08,.41-.05,.81-.15,1.2-.29,.39-.14,.79-.33,1.21-.57l1.9-1.15c-.46-.1-.87-.21-1.23-.35-.36-.13-.69-.26-1-.39-.3-.13-.57-.23-.82-.32-.25-.09-.5-.13-.75-.13-.35,0-.64,.12-.86,.37-.23,.25-.39,.62-.5,1.12l-.07,.34-2.05-.37,.07-.44c.21-1.14,.56-2.03,1.06-2.67,.5-.64,1.24-.96,2.24-.96,.44,0,.9,.09,1.38,.27Zm-.26,9.54l1.62,1.62-1.62,1.62-1.62-1.62,1.62-1.62Z"/>
    <path class="cls-2" d="M234.05,203.32v-12.42h2.63v12.42h-2.63Z"/>
    <path class="cls-2" d="M249.66,198.95h-7.77v-1.91h7.77v1.91Z"/>
    <path class="cls-2" d="M266.95,203.2c-.21-.08-.39-.19-.53-.32-.1,1.1-.42,2.01-.97,2.72-.55,.71-1.26,1.24-2.13,1.59-.87,.34-1.85,.52-2.92,.52-2.08,0-3.61-.48-4.6-1.44-.99-.96-1.48-2.31-1.48-4.06,0-.49,.04-1.01,.11-1.55s.18-1.1,.32-1.68c.14-.58,.31-1.15,.51-1.72l2.39,.72c-.19,.64-.37,1.3-.53,2s-.23,1.34-.23,1.95c0,.67,.11,1.23,.34,1.7s.6,.82,1.12,1.07c.52,.25,1.2,.37,2.06,.37s1.56-.12,2.07-.35c.51-.24,.87-.57,1.09-1,.22-.43,.32-.94,.32-1.53,0-.42-.05-.86-.15-1.35s-.23-.97-.38-1.47-.31-.98-.48-1.44l2.58-1.02,.72,2.38c.13,.51,.29,.88,.47,1.09s.45,.32,.79,.32c.32,0,.57-.1,.74-.3s.28-.51,.32-.93l.15-1.92,2.29,.16-.11,1.74c-.03,.43,.04,.75,.21,.95,.17,.2,.44,.3,.81,.3,.66,0,.98-.39,.98-1.16,0-.22-.03-.54-.08-.94s-.13-.9-.23-1.48l2.56-.61c.11,.52,.2,1.04,.26,1.56,.06,.52,.09,1,.09,1.44,0,1.29-.26,2.25-.78,2.88-.52,.63-1.3,.94-2.35,.94-.67,0-1.22-.13-1.65-.38s-.73-.62-.91-1.09c-.13,.47-.38,.83-.77,1.09-.39,.26-.82,.39-1.29,.39-.26,0-.5-.04-.71-.12Zm1.04-10.53l1.62,1.62-1.62,1.62-1.62-1.62,1.62-1.62Zm1.5-2.82l1.62,1.62-1.62,1.62-1.62-1.62,1.62-1.62Zm1.5,2.82l1.62,1.62-1.62,1.62-1.62-1.62,1.62-1.62Z"/>
    <path class="cls-2" d="M280.3,203.32c-.2,.01-.4,.02-.62,.02-.97,0-1.72-.27-2.27-.82-.54-.54-.81-1.33-.81-2.37,0-.51,.07-1.03,.2-1.56s.34-1.01,.62-1.45c.28-.44,.63-.8,1.06-1.06,.43-.27,.94-.4,1.52-.4,.74,0,1.34,.17,1.82,.51,.48,.34,.85,.8,1.12,1.39,.27,.59,.46,1.26,.57,2.02,.11,.76,.17,1.55,.17,2.38,0,1.56-.51,2.85-1.53,3.88-1.02,1.02-2.57,1.87-4.65,2.53l-1.13-2.38c1.17-.35,2.15-.76,2.94-1.22,.79-.46,1.31-.97,1.58-1.51-.19,.02-.39,.04-.59,.06Zm.78-3.71c-.06-.29-.15-.55-.25-.76s-.23-.37-.37-.48c-.14-.11-.31-.17-.51-.17-.24,0-.44,.08-.59,.24-.15,.16-.27,.37-.35,.63-.08,.26-.12,.54-.12,.83s.09,.5,.27,.62,.46,.18,.85,.18c.22,0,.44-.01,.65-.03,.21-.02,.4-.05,.55-.08-.03-.36-.08-.69-.15-.99Z"/>
    <path class="cls-2" d="M289.56,196.72l.58,1.91c.18,.59,.35,1.03,.51,1.32,.17,.29,.38,.49,.65,.59,.27,.1,.63,.15,1.11,.15h0v2.63h0c-.4,0-.77-.05-1.1-.15s-.61-.26-.84-.47c-.09,.87-.35,1.65-.77,2.35-.42,.69-1.03,1.31-1.83,1.86-.8,.55-1.79,1.04-3,1.49l-1.15-2.37c1.02-.36,1.84-.73,2.46-1.12,.62-.39,1.07-.82,1.35-1.31,.28-.49,.42-1.06,.42-1.73,0-.54-.08-1.17-.23-1.9s-.38-1.53-.67-2.39l2.5-.85Z"/>
    <path class="cls-2" d="M293.17,200.69c1.04,0,1.86-.02,2.48-.05,.62-.03,1.08-.1,1.38-.2,.3-.1,.51-.26,.61-.46,.1-.21,.15-.48,.15-.82-.3,.09-.6,.15-.91,.19s-.63,.06-.97,.06c-.93,0-1.67-.2-2.23-.61-.56-.4-.83-1.12-.83-2.15,0-.5,.06-1.02,.18-1.56s.31-1.04,.58-1.5,.61-.84,1.04-1.12c.43-.29,.95-.43,1.56-.43s1.11,.12,1.54,.36c.43,.24,.78,.56,1.07,.96,.28,.4,.51,.84,.69,1.33s.31,.97,.39,1.47c.09,.5,.15,.96,.18,1.39,.03,.43,.04,.79,.04,1.07,0,.81-.09,1.51-.28,2.1-.19,.59-.53,1.08-1.02,1.47s-1.18,.67-2.08,.85c-.9,.19-2.06,.28-3.48,.28h-.84c-.12,0-.21-.09-.27-.27-.06-.18-.09-.53-.09-1.05s.03-.88,.09-1.05c.06-.18,.15-.26,.27-.26h.75Zm3.02-13.4l1.62,1.62-1.62,1.62-1.62-1.62,1.62-1.62Zm1.09,8.73c-.07-.29-.15-.54-.25-.75-.1-.21-.22-.37-.37-.48-.15-.11-.32-.17-.52-.17-.24,0-.44,.08-.59,.24-.15,.16-.27,.37-.35,.63-.08,.26-.12,.54-.12,.83s.09,.5,.27,.62c.18,.12,.46,.18,.85,.18,.22,0,.44-.01,.66-.04,.22-.03,.4-.05,.56-.08-.03-.36-.08-.69-.15-.99Z"/>
    <path class="cls-2" d="M312.54,198.95h-7.77v-1.91h7.77v1.91Z"/>
    <path class="cls-2" d="M325.61,198.99c.29,.67,.59,1.12,.91,1.35,.32,.23,.76,.35,1.3,.35h.09v2.63h-.13c-.72,0-1.38-.13-1.97-.38s-1.07-.68-1.45-1.29c-.36,.6-.87,1.04-1.53,1.33-.66,.28-1.36,.43-2.11,.43-.64,0-1.27-.11-1.91-.32-.64-.21-1.21-.53-1.71-.96l1.14-2.09c.38,.25,.78,.44,1.21,.56s.83,.18,1.23,.18c.49,0,.94-.08,1.35-.24,.41-.16,.76-.41,1.06-.75l-2.16-4.9,2.43-1.16,2.25,5.26Z"/>
    <path class="cls-2" d="M327.44,204.61l1.62,1.62-1.62,1.62-1.62-1.62,1.62-1.62Zm4.98-6.97c.1,.62,.15,1.19,.15,1.72,0,.8-.15,1.49-.44,2.09-.29,.6-.76,1.06-1.39,1.38s-1.47,.49-2.49,.49h-.32c-.12,0-.21-.09-.27-.27-.06-.18-.09-.53-.09-1.05s.03-.88,.09-1.05c.06-.18,.15-.26,.27-.26h.32c.61,0,1.05-.13,1.33-.4,.28-.26,.41-.68,.41-1.24,0-.33-.04-.72-.12-1.17-.08-.45-.19-.95-.32-1.52l2.48-.68c.17,.69,.3,1.34,.4,1.96Zm-1.99,6.97l1.62,1.62-1.62,1.62-1.62-1.62,1.62-1.62Z"/>
    <path class="cls-2" d="M338.43,196.72l.58,1.91c.18,.59,.35,1.03,.51,1.32s.38,.49,.65,.59c.26,.1,.63,.15,1.11,.15h0v2.63h0c-.41,0-.77-.05-1.1-.15-.33-.1-.61-.26-.84-.47-.09,.87-.35,1.65-.77,2.35s-1.03,1.31-1.83,1.86c-.79,.55-1.79,1.04-3,1.49l-1.15-2.37c1.02-.36,1.84-.73,2.46-1.12,.62-.39,1.07-.82,1.35-1.31s.42-1.06,.42-1.73c0-.54-.08-1.17-.23-1.9-.15-.73-.38-1.53-.67-2.39l2.5-.85Z"/>
    <path class="cls-2" d="M346.78,195.07c.48,.18,1.01,.39,1.58,.64,.57,.25,1.19,.5,1.85,.76,.66,.26,1.4,.47,2.21,.64v2.1l-3.86,2.58c-.84,.55-1.69,.95-2.56,1.18-.87,.23-1.82,.35-2.85,.35h-1.86c-.12,0-.21-.09-.27-.27-.06-.18-.09-.53-.09-1.05s.03-.88,.09-1.05c.06-.18,.15-.26,.27-.26h2.36c.49,0,.94-.03,1.35-.08s.81-.15,1.2-.29,.79-.33,1.21-.57l1.9-1.15c-.46-.1-.87-.21-1.24-.35-.36-.13-.69-.26-1-.39-.3-.13-.57-.23-.82-.32-.25-.09-.5-.13-.75-.13-.35,0-.63,.12-.86,.37-.23,.25-.39,.62-.5,1.12l-.07,.34-2.05-.37,.07-.44c.21-1.14,.56-2.03,1.06-2.67,.5-.64,1.24-.96,2.24-.96,.44,0,.9,.09,1.38,.27Zm.36-5.37l1.62,1.62-1.62,1.62-1.62-1.62,1.62-1.62Z"/>
  </g>
  <g>
    <path class="cls-2" d="M392.08,274.06h-.06l-22.53,.12c-3.25,.02-5.95-2.18-6.3-5.11l-2.27-18.87c-.14-1.13,.21-2.25,.93-3.15,.82-1.01,2.08-1.65,3.46-1.77h0c1.89-.16,4.51-.41,7.39-.7,6.26-.62,13.37-1.34,17.53-1.44h.08c2.99-.04,5.58,1.73,6.34,4.37,1.24,4.33,1.26,12.54,1.17,21.3-.02,2.86-2.6,5.21-5.75,5.25Zm-26.61-26.94c-.89,.08-1.67,.47-2.18,1.09-.41,.51-.62,1.13-.54,1.77l2.27,18.87c.25,2,2.16,3.5,4.47,3.48l22.53-.12h.04c2.16-.04,3.91-1.57,3.93-3.46,.08-8.61,.08-16.68-1.09-20.78-.51-1.81-2.49-3.13-4.61-3.03-4.1,.1-11.47,.84-17.4,1.44-2.88,.33-5.5,.58-7.42,.74h0Z"/>
    <path class="cls-15" d="M367.92,248.97c4.74-.39,14.99-1.59,19.88-1.73,2.06-.06,3.89,1.17,4.41,2.95,.99,3.46,.97,10.4,.91,16.81-.02,1.92-1.75,3.48-3.91,3.48l-18,.1c-2.2,.02-4.08-1.46-4.3-3.44l-1.81-15.08c-.19-1.52,1.09-2.95,2.84-3.09Z"/>
    <path class="cls-1" d="M368.93,251.94h0c1.65-1.01,3.81-.45,4.78,1.24l4.55,7.91c.45,.78,1.63,.72,1.98-.12l10.65-24.7c.54-1.24,2.37-.84,2.37,.49,0,7.5-1.77,21.79-13.59,33.92,0,0-6.65-2.47-12.13-14.07-.78-1.71-.19-3.73,1.4-4.68Z"/>
  </g>
  <g>
    <path class="cls-2" d="M225.82,258.85c-.22-.09-.49-.16-.83-.22-.34-.06-.65-.09-.93-.09-.44,0-.84,.07-1.2,.22-.35,.15-.63,.36-.83,.64-.2,.28-.3,.63-.3,1.04,0,.38,.16,.63,.48,.75s.85,.2,1.58,.25c.44,.02,.85,.07,1.25,.15,.39,.08,.74,.21,1.05,.4,.3,.19,.54,.46,.72,.81,.17,.35,.26,.81,.26,1.39,0,.84-.17,1.55-.52,2.13-.34,.58-.82,1.05-1.42,1.41-.6,.36-1.29,.62-2.07,.78-.78,.16-1.6,.24-2.47,.24-1.97,0-3.46-.43-4.45-1.3-.99-.87-1.49-2.26-1.49-4.17,0-.62,.03-1.22,.1-1.81s.17-1.19,.29-1.79l2.45,.45c-.1,.59-.18,1.13-.24,1.62-.06,.49-.09,1.01-.09,1.57,0,.73,.12,1.3,.36,1.7,.24,.4,.62,.69,1.12,.85s1.16,.24,1.96,.24c.42,0,.85-.03,1.31-.08,.46-.05,.89-.14,1.29-.25,.4-.11,.72-.26,.97-.44,.25-.18,.38-.4,.38-.65s-.09-.4-.27-.49c-.18-.09-.54-.15-1.09-.18-.88-.05-1.62-.18-2.22-.38-.6-.21-1.04-.53-1.34-.97-.3-.44-.45-1.05-.45-1.82,0-.92,.19-1.75,.57-2.48,.38-.74,.92-1.32,1.62-1.76,.7-.43,1.53-.65,2.49-.65,.47,0,.95,.05,1.44,.15s.92,.23,1.3,.4l-.79,2.36Z"/>
    <path class="cls-2" d="M232.93,257.48l.58,1.91c.18,.59,.35,1.03,.51,1.32,.17,.29,.38,.49,.65,.59,.27,.1,.63,.15,1.11,.15h0v2.63h0c-.4,0-.77-.05-1.1-.15s-.61-.26-.84-.47c-.09,.87-.35,1.65-.77,2.35-.42,.69-1.03,1.31-1.83,1.86-.8,.55-1.79,1.04-3,1.49l-1.15-2.37c1.02-.36,1.84-.73,2.46-1.12,.62-.39,1.07-.82,1.35-1.31,.28-.49,.42-1.06,.42-1.73,0-.54-.08-1.17-.23-1.9s-.38-1.53-.67-2.39l2.5-.85Z"/>
    <path class="cls-2" d="M236.99,253.29l1.62,1.62-1.62,1.62-1.62-1.62,1.62-1.62Zm3.77,7.37c.08,.29,.26,.5,.52,.61,.26,.11,.66,.17,1.21,.17h.35v2.63h-.37c-.71,0-1.36-.14-1.95-.42s-.99-.66-1.21-1.15c-.14,.32-.38,.61-.71,.84-.33,.24-.71,.42-1.15,.54s-.89,.19-1.35,.19h-.32c-.12,0-.21-.09-.27-.27-.06-.18-.09-.53-.09-1.05s.03-.88,.09-1.05c.06-.18,.15-.26,.27-.26h.32c.55,0,.96-.06,1.23-.18,.27-.12,.45-.32,.54-.61s.13-.7,.13-1.22v-1.55h2.63v1.55c0,.52,.04,.93,.12,1.23Zm-.78-7.37l1.62,1.62-1.62,1.62-1.62-1.62,1.62-1.62Z"/>
    <path class="cls-2" d="M243.85,261.14c.27-.21,.51-.48,.72-.81s.4-.69,.59-1.07c.24-.47,.49-.92,.77-1.35,.27-.43,.61-.78,1.01-1.05,.4-.27,.92-.41,1.54-.41,.69,0,1.3,.2,1.82,.59s.93,.91,1.22,1.54c.29,.63,.44,1.31,.44,2.03,0,1.08-.29,1.95-.87,2.59-.58,.65-1.4,.97-2.45,.97-.59,0-1.16-.12-1.71-.37-.55-.25-.98-.58-1.3-1-.34,.4-.73,.71-1.17,.94-.44,.23-.98,.34-1.61,.34-.12,0-.21-.09-.27-.27-.06-.18-.09-.53-.09-1.05s.03-.88,.09-1.05c.06-.18,.15-.26,.27-.26,.4,0,.74-.1,1.02-.31Zm3.94,.21c.3,.13,.58,.19,.84,.19,.22,0,.43-.08,.63-.23,.2-.15,.29-.39,.29-.71,0-.31-.05-.58-.16-.82-.11-.24-.25-.42-.42-.56-.17-.13-.34-.2-.53-.2-.17,0-.32,.04-.47,.12-.15,.08-.3,.22-.45,.43-.15,.21-.3,.5-.44,.88l-.14,.32c.27,.25,.55,.44,.85,.57Z"/>
    <path class="cls-2" d="M267.85,258.85c-.22-.09-.49-.16-.83-.22-.34-.06-.65-.09-.93-.09-.44,0-.84,.07-1.2,.22-.35,.15-.63,.36-.83,.64-.2,.28-.3,.63-.3,1.04,0,.38,.16,.63,.48,.75s.85,.2,1.58,.25c.44,.02,.85,.07,1.25,.15,.39,.08,.74,.21,1.05,.4,.3,.19,.54,.46,.72,.81,.17,.35,.26,.81,.26,1.39,0,.84-.17,1.55-.52,2.13-.34,.58-.82,1.05-1.42,1.41-.6,.36-1.29,.62-2.07,.78-.78,.16-1.6,.24-2.47,.24-1.97,0-3.46-.43-4.45-1.3-.99-.87-1.49-2.26-1.49-4.17,0-.62,.03-1.22,.1-1.81s.17-1.19,.29-1.79l2.45,.45c-.1,.59-.18,1.13-.24,1.62-.06,.49-.09,1.01-.09,1.57,0,.73,.12,1.3,.36,1.7,.24,.4,.62,.69,1.12,.85s1.16,.24,1.96,.24c.42,0,.85-.03,1.31-.08,.46-.05,.89-.14,1.29-.25,.4-.11,.72-.26,.97-.44,.25-.18,.38-.4,.38-.65s-.09-.4-.27-.49c-.18-.09-.54-.15-1.09-.18-.88-.05-1.62-.18-2.22-.38-.6-.21-1.04-.53-1.34-.97-.3-.44-.45-1.05-.45-1.82,0-.92,.19-1.75,.57-2.48,.38-.74,.92-1.32,1.62-1.76,.7-.43,1.53-.65,2.49-.65,.47,0,.95,.05,1.44,.15s.92,.23,1.3,.4l-.79,2.36Z"/>
    <path class="cls-2" d="M274.97,257.48c.32,1.03,.58,1.97,.76,2.81,.18,.84,.27,1.62,.27,2.35,0,1-.2,1.9-.59,2.7-.39,.8-1.01,1.51-1.85,2.14-.84,.63-1.94,1.19-3.29,1.68l-1.15-2.37c1.02-.36,1.84-.73,2.46-1.12s1.07-.82,1.35-1.31c.28-.49,.42-1.06,.42-1.72,0-.54-.08-1.18-.23-1.91-.15-.73-.38-1.53-.67-2.4l2.5-.85Z"/>
    <path class="cls-2" d="M277.72,264.08v-12.42h2.63v12.42h-2.63Z"/>
    <path class="cls-2" d="M290.39,259.75c.28,.67,.59,1.12,.91,1.35,.32,.23,.76,.35,1.3,.35h.09v2.63h-.13c-.72,0-1.38-.13-1.97-.38s-1.07-.68-1.45-1.29c-.36,.6-.87,1.04-1.53,1.33-.66,.28-1.36,.43-2.11,.43-.64,0-1.27-.11-1.91-.32-.64-.21-1.21-.53-1.71-.96l1.14-2.09c.38,.25,.78,.44,1.21,.56s.83,.18,1.23,.18c.49,0,.94-.08,1.35-.24,.41-.16,.76-.41,1.06-.75l-2.16-4.9,2.43-1.16,2.25,5.26Zm-3.66-10.06l1.62,1.62-1.62,1.62-1.62-1.62,1.62-1.62Z"/>
    <path class="cls-2" d="M301.2,252.99c-.95,.24-1.84,.52-2.69,.83s-1.7,.69-2.57,1.13v.09c1.24,1.03,2.14,1.97,2.71,2.81,.57,.84,.85,1.67,.85,2.49,0,.77-.23,1.44-.68,2-.45,.56-1.09,.99-1.92,1.3-.83,.31-1.82,.46-2.97,.46h-1.24c-.13,0-.22-.1-.27-.31s-.09-.55-.09-1.01,.03-.81,.09-1.01c.06-.2,.15-.3,.27-.3h1.18c.97,0,1.71-.11,2.23-.33,.52-.22,.77-.54,.77-.97,0-.46-.32-1.02-.96-1.7s-1.66-1.53-3.06-2.56v-2.14c2.58-1.63,5.19-2.74,7.81-3.34l.54,2.57Zm-1.38-3.73c-1.12,.26-2.24,.63-3.37,1.09-1.13,.47-2.19,1.01-3.19,1.62l-.71-1.16c1.07-.64,2.19-1.21,3.38-1.71,1.19-.49,2.38-.88,3.58-1.16l.31,1.32Z"/>
    <path class="cls-2" d="M305.94,254.35l2.64-.16,.32,5.61c.03,.57,.17,.99,.42,1.26,.25,.27,.72,.4,1.43,.4h0v2.63h0c-.97,0-1.76-.12-2.37-.37-.6-.25-1.07-.62-1.38-1.11-.27,.1-.56,.18-.85,.24-.3,.05-.59,.08-.89,.08-.64,0-1.24-.1-1.8-.29-.56-.19-1.02-.5-1.37-.91-.35-.41-.53-.94-.53-1.59,0-.82,.2-1.52,.61-2.11,.41-.58,.95-1.06,1.63-1.42,.68-.36,1.43-.62,2.25-.78l-.1-1.48Zm-1.04,4.15c-.33,.15-.56,.34-.71,.55-.14,.21-.22,.42-.22,.62,0,.24,.12,.44,.36,.61s.61,.25,1.12,.25c.14,0,.3,0,.48-.03,.18-.02,.34-.05,.47-.08-.02-.08-.03-.16-.04-.23-.01-.07-.02-.16-.03-.27l-.11-1.71c-.55,.03-.99,.13-1.31,.28Z"/>
    <path class="cls-2" d="M310.27,265.37l1.62,1.62-1.62,1.62-1.62-1.62,1.62-1.62Zm4.98-6.97c.1,.62,.15,1.19,.15,1.72,0,.8-.15,1.49-.44,2.09-.29,.6-.76,1.06-1.39,1.38-.64,.32-1.47,.49-2.49,.49h-.33c-.12,0-.21-.09-.27-.27-.06-.18-.09-.53-.09-1.05s.03-.88,.09-1.05c.06-.18,.15-.26,.27-.26h.33c.61,0,1.05-.13,1.33-.4,.28-.26,.42-.68,.42-1.24,0-.33-.04-.72-.12-1.17-.08-.45-.19-.95-.32-1.52l2.48-.68c.17,.69,.3,1.34,.4,1.96Zm-1.99,6.97l1.62,1.62-1.62,1.62-1.62-1.62,1.62-1.62Z"/>
    <path class="cls-2" d="M319.62,251.66v8.15c0,.6,.12,1.03,.38,1.27s.74,.37,1.46,.37v2.63c-1.41,0-2.51-.35-3.29-1.06-.79-.71-1.18-1.76-1.18-3.16v-8.2h2.64Z"/>
    <path class="cls-2" d="M322.47,261.14c.27-.21,.51-.48,.72-.81s.4-.69,.59-1.07c.24-.47,.5-.92,.77-1.35,.27-.43,.61-.78,1.01-1.05,.4-.27,.92-.41,1.54-.41,.69,0,1.29,.2,1.82,.59s.93,.91,1.22,1.54c.29,.63,.44,1.31,.44,2.03,0,1.08-.29,1.95-.87,2.59s-1.4,.97-2.45,.97c-.59,0-1.16-.12-1.71-.37-.55-.25-.98-.58-1.3-1-.34,.4-.72,.71-1.17,.94-.44,.23-.98,.34-1.61,.34-.12,0-.21-.09-.27-.27-.06-.18-.09-.53-.09-1.05s.03-.88,.09-1.05c.06-.18,.15-.26,.27-.26,.41,0,.74-.1,1.02-.31Zm3.94,.21c.3,.13,.58,.19,.84,.19,.22,0,.43-.08,.63-.23,.2-.15,.29-.39,.29-.71,0-.31-.05-.58-.16-.82-.11-.24-.25-.42-.42-.56-.17-.13-.34-.2-.53-.2-.17,0-.32,.04-.47,.12-.15,.08-.3,.22-.45,.43s-.3,.5-.44,.88l-.14,.32c.27,.25,.55,.44,.85,.57Z"/>
    <path class="cls-2" d="M335.69,257.48l.58,1.91c.18,.59,.35,1.03,.51,1.32,.16,.29,.38,.49,.64,.59,.27,.1,.63,.15,1.11,.15h0v2.63h0c-.4,0-.77-.05-1.1-.15-.33-.1-.61-.26-.84-.47-.09,.87-.35,1.65-.77,2.35-.42,.69-1.03,1.31-1.83,1.86-.8,.55-1.79,1.04-3,1.49l-1.15-2.37c1.02-.36,1.84-.73,2.46-1.12,.62-.39,1.07-.82,1.35-1.31,.28-.49,.42-1.06,.42-1.73,0-.54-.08-1.17-.23-1.9s-.38-1.53-.67-2.39l2.5-.85Z"/>
    <path class="cls-2" d="M345.15,261.17c.19-.2,.3-.52,.34-.95l.15-1.92,2.29,.16-.11,1.74c-.03,.43,.04,.75,.21,.95s.44,.3,.81,.3c.66,0,.98-.39,.98-1.16,0-.16-.01-.37-.03-.63-.02-.26-.06-.55-.1-.88-.04-.32-.1-.66-.16-1.02l2.55-.61c.07,.34,.14,.68,.19,1.04,.05,.36,.09,.71,.12,1.06s.04,.68,.04,.99c0,1.29-.26,2.25-.77,2.88-.51,.63-1.3,.95-2.35,.95-.67,0-1.22-.13-1.65-.38-.43-.26-.74-.62-.92-1.09-.37,.99-1.18,1.48-2.45,1.48-.64,0-1.17-.13-1.57-.39-.4-.26-.69-.64-.85-1.15-.25,.47-.64,.84-1.18,1.12-.54,.28-1.14,.42-1.82,.42h-.33c-.12,0-.22-.11-.27-.32-.06-.22-.09-.56-.09-1.03s.03-.78,.08-.98c.05-.2,.15-.3,.28-.3h.33c.62,0,1.08-.13,1.38-.39,.3-.26,.48-.71,.54-1.33l.16-1.89,2.63,.2-.18,2.05c-.04,.43,.02,.77,.18,1s.42,.35,.78,.37c.34,.02,.61-.08,.79-.28Z"/>
  </g>
  <g>
    <path class="cls-2" d="M392.54,334.89h-.06l-22.53,.12c-3.25,.02-5.95-2.18-6.3-5.11l-2.27-18.87c-.14-1.13,.21-2.25,.93-3.15,.82-1.01,2.08-1.65,3.46-1.77h0c1.89-.16,4.51-.41,7.39-.7,6.26-.62,13.37-1.34,17.53-1.44h.08c2.99-.04,5.58,1.73,6.34,4.37,1.24,4.33,1.26,12.54,1.17,21.3-.02,2.86-2.6,5.21-5.75,5.25Zm-26.61-26.94c-.89,.08-1.67,.47-2.18,1.09-.41,.51-.62,1.13-.54,1.77l2.27,18.87c.25,2,2.16,3.5,4.47,3.48l22.53-.12h.04c2.16-.04,3.91-1.57,3.93-3.46,.08-8.61,.08-16.68-1.09-20.78-.51-1.81-2.49-3.13-4.61-3.03-4.1,.1-11.47,.84-17.4,1.44-2.88,.33-5.5,.58-7.42,.74h0Z"/>
    <path class="cls-15" d="M368.38,309.8c4.74-.39,14.99-1.59,19.88-1.73,2.06-.06,3.89,1.17,4.41,2.95,.99,3.46,.97,10.4,.91,16.81-.02,1.92-1.75,3.48-3.91,3.48l-18,.1c-2.2,.02-4.08-1.46-4.3-3.44l-1.81-15.08c-.19-1.52,1.09-2.95,2.84-3.09Z"/>
    <path class="cls-20" d="M369.39,312.77h0c1.65-1.01,3.81-.45,4.78,1.24l4.55,7.91c.45,.78,1.63,.72,1.98-.12l10.65-24.7c.54-1.24,2.37-.84,2.37,.49,0,7.5-1.77,21.79-13.59,33.92,0,0-6.65-2.47-12.13-14.07-.78-1.71-.19-3.73,1.4-4.68Z"/>
  </g>
  <g>
    <path class="cls-2" d="M301.65,324.59c-.51-.28-.91-.64-1.18-1.1-.28-.46-.41-.96-.41-1.51,0-.51,.08-1,.23-1.47,.15-.47,.38-.93,.68-1.37,.3-.44,.67-.88,1.1-1.31-.13-.12-.26-.25-.41-.38-.15-.13-.3-.27-.46-.41l1.57-1.88c.5,.4,1,.84,1.5,1.34,.5,.49,.97,1.02,1.39,1.59,.42,.56,.76,1.15,1.01,1.77,.25,.62,.38,1.25,.38,1.9,0,.6-.15,1.14-.46,1.64s-.73,.88-1.26,1.18c-.54,.29-1.15,.44-1.83,.44-.72,0-1.33-.14-1.85-.41Zm2.66-2.48c.18-.17,.27-.4,.27-.68,0-.3-.08-.62-.25-.99-.17-.36-.45-.72-.83-1.07-.38,.35-.66,.71-.83,1.07-.17,.37-.26,.7-.26,.99,0,.27,.09,.5,.27,.67,.18,.17,.46,.26,.82,.26s.63-.08,.81-.26Z"/>
    <path class="cls-2" d="M312.07,318.31c.33,1.03,.58,1.97,.76,2.81s.27,1.62,.27,2.35c0,1-.2,1.9-.59,2.7-.39,.8-1.01,1.51-1.85,2.14-.84,.63-1.94,1.19-3.29,1.68l-1.15-2.37c1.02-.36,1.84-.73,2.46-1.12s1.07-.82,1.36-1.31,.42-1.06,.42-1.72c0-.54-.08-1.18-.23-1.91-.15-.73-.38-1.53-.67-2.4l2.5-.85Z"/>
    <path class="cls-2" d="M318.19,324.91c-.2,.01-.4,.02-.62,.02-.97,0-1.72-.27-2.27-.82-.54-.54-.81-1.33-.81-2.37,0-.51,.07-1.03,.2-1.56,.13-.53,.34-1.01,.62-1.45,.28-.44,.63-.8,1.06-1.06,.43-.27,.93-.4,1.52-.4,.74,0,1.34,.17,1.82,.51,.48,.34,.85,.8,1.12,1.39s.46,1.26,.57,2.02c.11,.76,.17,1.55,.17,2.39,0,1.56-.51,2.85-1.53,3.88-1.02,1.02-2.57,1.86-4.65,2.53l-1.13-2.38c1.17-.35,2.15-.76,2.94-1.22,.79-.46,1.31-.97,1.58-1.51-.19,.02-.39,.04-.59,.06Zm.78-3.71c-.06-.29-.15-.55-.25-.76-.1-.21-.22-.37-.37-.48s-.31-.17-.51-.17c-.24,0-.44,.08-.59,.24-.15,.16-.27,.37-.35,.63-.08,.26-.12,.54-.12,.83s.09,.5,.26,.62c.18,.12,.46,.18,.86,.18,.22,0,.44-.01,.65-.03,.21-.02,.4-.05,.55-.08-.03-.36-.08-.69-.15-.99Z"/>
    <path class="cls-2" d="M325.8,312.49v8.15c0,.6,.12,1.03,.38,1.27,.25,.25,.74,.37,1.46,.37v2.63c-1.41,0-2.51-.35-3.29-1.06-.79-.71-1.18-1.76-1.18-3.16v-8.2h2.64Z"/>
    <path class="cls-2" d="M338.67,321.99c.16-.19,.24-.48,.24-.88,0-.22-.03-.52-.08-.91-.05-.39-.13-.9-.24-1.52l2.55-.53,.21,1.46c.11,.74,.24,1.3,.4,1.68,.16,.38,.39,.64,.68,.77,.29,.13,.7,.2,1.22,.2h0v2.63h0c-.81,0-1.47-.14-1.98-.42-.5-.28-.83-.69-.97-1.21-.11,.51-.39,.91-.83,1.2-.44,.29-.97,.43-1.6,.43s-1.15-.13-1.56-.39c-.42-.26-.71-.62-.89-1.08-.37,.99-1.18,1.48-2.44,1.48-.64,0-1.17-.13-1.57-.39-.4-.26-.69-.64-.85-1.15-.25,.47-.64,.84-1.18,1.12-.54,.28-1.14,.42-1.82,.42h-.33c-.12,0-.22-.11-.27-.33-.06-.22-.08-.56-.08-1.03s.03-.78,.08-.98c.06-.2,.15-.3,.27-.3h.33c.62,0,1.08-.13,1.38-.39,.3-.26,.48-.71,.53-1.33l.16-1.89,2.63,.2-.18,2.05c-.04,.43,.02,.77,.18,1,.16,.23,.42,.35,.78,.37,.34,.02,.61-.08,.79-.28,.19-.2,.3-.52,.34-.95l.15-1.92,2.29,.16-.12,1.74c-.03,.43,.04,.75,.21,.95s.44,.3,.8,.3,.6-.09,.76-.28Zm-4.48-7.74l1.62,1.62-1.62,1.62-1.62-1.62,1.62-1.62Zm1.5-2.82l1.62,1.62-1.62,1.62-1.62-1.62,1.62-1.62Zm1.5,2.82l1.62,1.62-1.62,1.62-1.62-1.62,1.62-1.62Z"/>
    <path class="cls-2" d="M344.67,321.96c.27-.21,.51-.48,.72-.81,.21-.33,.4-.69,.59-1.07,.24-.47,.49-.92,.77-1.35,.27-.43,.61-.78,1.01-1.05,.4-.27,.92-.41,1.54-.41,.69,0,1.29,.2,1.82,.59,.52,.4,.93,.91,1.22,1.54,.29,.63,.44,1.31,.44,2.03,0,1.08-.29,1.95-.87,2.59s-1.4,.97-2.45,.97c-.59,0-1.16-.12-1.71-.37s-.98-.58-1.3-1c-.34,.4-.73,.71-1.17,.94-.44,.23-.98,.34-1.61,.34-.12,0-.21-.09-.27-.26-.06-.18-.09-.53-.09-1.05s.03-.88,.09-1.05c.06-.18,.15-.26,.27-.26,.4,0,.74-.1,1.02-.31Zm3.94,.21c.3,.13,.58,.19,.84,.19,.22,0,.43-.08,.63-.23,.2-.15,.29-.39,.29-.71,0-.31-.05-.58-.16-.82s-.25-.42-.41-.56-.34-.2-.53-.2c-.17,0-.32,.04-.47,.12-.15,.08-.3,.22-.45,.43s-.3,.5-.44,.88l-.14,.33c.27,.25,.55,.44,.85,.57Z"/>
  </g>
  <g>
    <path class="cls-2" d="M392.68,395.66h-.06l-22.53,.12c-3.25,.02-5.95-2.18-6.3-5.11l-2.27-18.87c-.14-1.13,.21-2.25,.93-3.15,.82-1.01,2.08-1.65,3.46-1.77h0c1.89-.16,4.51-.41,7.39-.7,6.26-.62,13.37-1.34,17.53-1.44h.08c2.99-.04,5.58,1.73,6.34,4.37,1.24,4.33,1.26,12.54,1.17,21.3-.02,2.86-2.6,5.21-5.75,5.25Zm-26.61-26.94c-.89,.08-1.67,.47-2.18,1.09-.41,.51-.62,1.13-.54,1.77l2.27,18.87c.25,2,2.16,3.5,4.47,3.48l22.53-.12h.04c2.16-.04,3.91-1.57,3.93-3.46,.08-8.61,.08-16.68-1.09-20.78-.51-1.81-2.49-3.13-4.61-3.03-4.1,.1-11.47,.84-17.4,1.44-2.88,.33-5.5,.58-7.42,.74h0Z"/>
    <path class="cls-15" d="M368.52,370.57c4.74-.39,14.99-1.59,19.88-1.73,2.06-.06,3.89,1.17,4.41,2.95,.99,3.46,.97,10.4,.91,16.81-.02,1.92-1.75,3.48-3.91,3.48l-18,.1c-2.2,.02-4.08-1.46-4.3-3.44l-1.81-15.08c-.19-1.52,1.09-2.95,2.84-3.09Z"/>
    <path class="cls-22" d="M369.53,373.54h0c1.65-1.01,3.81-.45,4.78,1.24l4.55,7.91c.45,.78,1.63,.72,1.98-.12l10.65-24.7c.54-1.24,2.37-.84,2.37,.49,0,7.5-1.77,21.79-13.59,33.92,0,0-6.65-2.47-12.13-14.07-.78-1.71-.19-3.73,1.4-4.68Z"/>
  </g>
  <g>
    <path class="cls-2" d="M213.47,380.49c-.05,.36-.08,.69-.08,.99,0,.32,.05,.6,.15,.83,.1,.23,.27,.42,.52,.54,.25,.13,.61,.19,1.07,.19h.02v2.63h-.02c-.94,0-1.71-.16-2.3-.48-.59-.32-1.09-.83-1.48-1.53-.71,.76-1.59,1.28-2.64,1.58-1.05,.29-2.26,.44-3.62,.44-1.49,0-2.69-.19-3.6-.57-.91-.38-1.58-.92-1.99-1.62s-.62-1.53-.62-2.49c0-.47,.04-.98,.13-1.51,.09-.54,.22-1.09,.39-1.65l2.31,.63c-.13,.43-.22,.83-.28,1.2-.06,.37-.09,.7-.09,1,0,.58,.13,1.04,.4,1.39s.7,.6,1.3,.76c.6,.15,1.42,.23,2.44,.23,.96,0,1.77-.08,2.45-.24,.68-.16,1.24-.4,1.68-.74,.45-.33,.8-.76,1.07-1.28s.46-1.14,.59-1.87l2.4,.39c-.08,.43-.15,.82-.2,1.18Zm-8.78-3.77l1.62,1.62-1.62,1.62-1.62-1.62,1.62-1.62Zm2.99,0l1.62,1.62-1.62,1.62-1.62-1.62,1.62-1.62Z"/>
    <path class="cls-2" d="M226.17,382.76c.16-.19,.24-.48,.24-.88,0-.22-.03-.52-.08-.91s-.13-.9-.24-1.52l2.55-.53,.21,1.46c.11,.74,.24,1.3,.4,1.68,.16,.38,.39,.64,.68,.77s.7,.2,1.22,.2h0v2.63h0c-.81,0-1.47-.14-1.98-.42s-.83-.69-.97-1.21c-.11,.51-.39,.91-.82,1.2-.44,.29-.97,.43-1.6,.43s-1.15-.13-1.56-.39c-.42-.26-.71-.62-.89-1.08-.36,.99-1.18,1.48-2.44,1.48-.64,0-1.17-.13-1.57-.39-.4-.26-.69-.64-.85-1.15-.25,.47-.64,.84-1.18,1.12s-1.14,.42-1.82,.42h-.32c-.13,0-.22-.11-.27-.33-.06-.22-.09-.56-.09-1.03s.03-.78,.09-.98c.06-.2,.15-.3,.27-.3h.32c.62,0,1.08-.13,1.38-.39,.3-.26,.48-.71,.53-1.33l.16-1.89,2.63,.2-.18,2.05c-.04,.43,.02,.77,.18,1s.42,.35,.78,.37c.34,.02,.61-.08,.79-.28,.19-.2,.3-.52,.34-.95l.15-1.92,2.29,.16-.12,1.74c-.03,.43,.04,.75,.21,.95s.44,.3,.8,.3,.6-.09,.76-.28Z"/>
    <path class="cls-2" d="M242.19,382.76c.16-.19,.24-.48,.24-.88,0-.22-.03-.52-.08-.91s-.13-.9-.24-1.52l2.55-.53,.21,1.46c.11,.74,.24,1.3,.4,1.68,.16,.38,.39,.64,.68,.77s.7,.2,1.22,.2h0v2.63h0c-.81,0-1.47-.14-1.98-.42s-.83-.69-.97-1.21c-.11,.51-.39,.91-.82,1.2-.44,.29-.97,.43-1.6,.43s-1.15-.13-1.56-.39c-.42-.26-.71-.62-.89-1.08-.36,.99-1.18,1.48-2.44,1.48-.64,0-1.17-.13-1.57-.39-.4-.26-.69-.64-.85-1.15-.25,.47-.64,.84-1.18,1.12s-1.14,.42-1.82,.42h-.32c-.13,0-.22-.11-.27-.33-.06-.22-.09-.56-.09-1.03s.03-.78,.09-.98c.06-.2,.15-.3,.27-.3h.32c.62,0,1.08-.13,1.38-.39,.3-.26,.48-.71,.53-1.33l.16-1.89,2.63,.2-.18,2.05c-.04,.43,.02,.77,.18,1s.42,.35,.78,.37c.34,.02,.61-.08,.79-.28,.19-.2,.3-.52,.34-.95l.15-1.92,2.29,.16-.12,1.74c-.03,.43,.04,.75,.21,.95s.44,.3,.8,.3,.6-.09,.76-.28Zm-4.48-7.74l1.62,1.62-1.62,1.62-1.62-1.62,1.62-1.62Zm1.5-2.82l1.62,1.62-1.62,1.62-1.62-1.62,1.62-1.62Zm1.5,2.82l1.62,1.62-1.62,1.62-1.62-1.62,1.62-1.62Z"/>
    <path class="cls-2" d="M251.68,380c.1,.62,.15,1.19,.15,1.72,0,.8-.15,1.49-.44,2.09-.29,.6-.76,1.06-1.39,1.38-.64,.33-1.47,.49-2.49,.49h-.32c-.12,0-.21-.09-.27-.26-.06-.18-.09-.53-.09-1.05s.03-.88,.09-1.05c.06-.18,.15-.26,.27-.26h.32c.61,0,1.05-.13,1.33-.4,.28-.27,.41-.68,.41-1.24,0-.33-.04-.72-.12-1.17s-.19-.95-.32-1.52l2.48-.67c.17,.69,.3,1.34,.4,1.96Zm-2.45-6.21l1.62,1.62-1.62,1.62-1.62-1.62,1.62-1.62Z"/>
    <path class="cls-2" d="M261.11,379.08c.32,1.03,.58,1.97,.76,2.81s.27,1.62,.27,2.35c0,1-.2,1.9-.59,2.7-.39,.8-1.01,1.51-1.85,2.14-.84,.63-1.94,1.19-3.29,1.68l-1.15-2.37c1.02-.36,1.84-.73,2.46-1.12s1.07-.82,1.35-1.31c.28-.49,.42-1.06,.42-1.72,0-.54-.08-1.18-.23-1.91s-.38-1.53-.67-2.4l2.5-.85Z"/>
    <path class="cls-2" d="M270.71,383.76c-.28,.47-.65,.85-1.11,1.14-.46,.29-.98,.5-1.56,.64s-1.16,.2-1.76,.2c-.54,0-1.08-.04-1.61-.11-.53-.07-1.01-.17-1.45-.3l.59-2.5c.27,.07,.63,.13,1.06,.2,.43,.06,.87,.09,1.32,.09,.4,0,.79-.04,1.14-.11,.36-.07,.65-.2,.87-.39,.22-.19,.33-.44,.33-.77,0-.42-.25-.97-.73-1.66-.49-.69-1.2-1.44-2.12-2.23l1.7-2.01c.72,.62,1.36,1.25,1.92,1.9,.56,.65,1.01,1.32,1.33,2.02,.33,.7,.49,1.43,.49,2.19,0,.66-.14,1.23-.41,1.69Z"/>
    <path class="cls-2" d="M278.77,373.26v8.15c0,.6,.12,1.03,.38,1.27,.25,.25,.74,.37,1.46,.37v2.63c-1.41,0-2.51-.35-3.3-1.06-.79-.71-1.18-1.76-1.18-3.16v-8.2h2.64Z"/>
    <path class="cls-2" d="M281.62,382.73c.28-.21,.52-.49,.72-.83s.4-.7,.6-1.08c.24-.47,.5-.91,.77-1.34,.27-.42,.61-.77,1-1.04,.39-.27,.88-.41,1.47-.41,.63,0,1.15,.13,1.56,.4,.41,.27,.75,.61,1.01,1.02,.27,.41,.5,.84,.71,1.29,.19,.4,.38,.77,.59,1.12,.2,.35,.45,.63,.74,.85,.29,.22,.67,.33,1.12,.33h0v2.63h0c-.42,0-.82-.06-1.2-.18-.38-.12-.7-.31-.97-.58-.27-.26-.47-.61-.6-1.03-.15,.59-.47,1.05-.98,1.38-.5,.33-1.09,.5-1.77,.5-.59,0-1.16-.12-1.71-.38-.55-.25-.98-.58-1.3-1-.34,.4-.73,.71-1.17,.94-.44,.23-.98,.34-1.61,.34-.12,0-.21-.09-.27-.26-.06-.18-.09-.53-.09-1.05s.03-.88,.09-1.05c.06-.18,.15-.26,.27-.26,.4,0,.74-.11,1.01-.32Zm3.95,.22c.3,.13,.58,.19,.84,.19,.22,0,.43-.08,.63-.23,.2-.15,.29-.39,.29-.71,0-.31-.05-.58-.16-.82-.11-.24-.25-.42-.42-.56-.17-.13-.34-.2-.53-.2-.17,0-.32,.04-.47,.12s-.3,.22-.45,.43c-.15,.21-.3,.5-.44,.88l-.14,.33c.27,.25,.55,.44,.85,.57Z"/>
    <path class="cls-2" d="M298.52,382.77c.19-.2,.3-.52,.34-.95l.15-1.92,2.29,.16-.11,1.74c-.03,.43,.04,.75,.21,.95s.44,.3,.81,.3c.66,0,.98-.39,.98-1.16,0-.16-.01-.37-.03-.63-.02-.26-.06-.55-.1-.88-.05-.33-.1-.66-.16-1.02l2.55-.61c.07,.34,.14,.68,.19,1.04,.05,.36,.09,.71,.12,1.06,.03,.35,.04,.68,.04,.99,0,1.29-.26,2.25-.77,2.88-.51,.63-1.3,.95-2.35,.95-.67,0-1.22-.13-1.65-.38s-.74-.62-.92-1.09c-.36,.99-1.18,1.48-2.44,1.48-.64,0-1.17-.13-1.57-.39-.4-.26-.69-.64-.85-1.15-.25,.47-.64,.84-1.18,1.12s-1.14,.42-1.82,.42h-.32c-.13,0-.22-.11-.27-.33-.06-.22-.09-.56-.09-1.03s.03-.78,.08-.98c.05-.2,.15-.3,.28-.3h.32c.62,0,1.08-.13,1.38-.39,.3-.26,.48-.71,.53-1.33l.16-1.89,2.63,.2-.18,2.05c-.04,.43,.02,.77,.18,1s.42,.35,.78,.37c.34,.02,.61-.08,.8-.28Zm-.05-7.74l1.62,1.62-1.62,1.62-1.62-1.62,1.62-1.62Zm1.5-2.82l1.62,1.62-1.62,1.62-1.62-1.62,1.62-1.62Zm1.5,2.82l1.62,1.62-1.62,1.62-1.62-1.62,1.62-1.62Z"/>
    <path class="cls-2" d="M311.88,385.36c-.51-.28-.91-.64-1.18-1.1-.28-.46-.42-.96-.42-1.51,0-.51,.08-1,.23-1.47,.15-.47,.38-.93,.68-1.37,.3-.44,.67-.88,1.1-1.31-.12-.12-.26-.25-.41-.38s-.3-.27-.46-.41l1.57-1.88c.5,.4,1,.84,1.5,1.34,.5,.49,.97,1.02,1.39,1.59,.42,.56,.76,1.15,1.01,1.77,.25,.62,.38,1.25,.38,1.9,0,.6-.15,1.14-.46,1.64-.31,.49-.73,.88-1.26,1.18-.54,.29-1.15,.44-1.83,.44-.72,0-1.33-.14-1.85-.41Zm2.66-2.48c.18-.17,.27-.4,.27-.68,0-.3-.08-.62-.25-.99-.17-.36-.45-.72-.83-1.07-.38,.35-.66,.71-.83,1.07-.17,.37-.26,.7-.26,.99,0,.27,.09,.5,.27,.67,.18,.17,.46,.26,.82,.26s.63-.08,.81-.26Z"/>
    <path class="cls-2" d="M318.91,385.68v-12.42h2.63v12.42h-2.63Z"/>
    <path class="cls-2" d="M327.11,379.08l.58,1.91c.18,.59,.35,1.03,.51,1.32,.17,.29,.38,.49,.65,.59,.27,.1,.63,.15,1.11,.15h0v2.63h0c-.41,0-.77-.05-1.1-.15-.33-.1-.61-.25-.84-.47-.09,.87-.35,1.65-.77,2.35-.42,.69-1.03,1.31-1.83,1.86-.79,.55-1.79,1.04-3,1.49l-1.15-2.37c1.02-.36,1.84-.73,2.46-1.12s1.07-.83,1.35-1.31c.28-.49,.42-1.06,.42-1.73,0-.54-.08-1.17-.23-1.9-.15-.73-.38-1.53-.67-2.39l2.5-.85Z"/>
    <path class="cls-2" d="M330.98,382.73c.28-.21,.52-.49,.72-.83s.4-.7,.6-1.08c.24-.47,.5-.91,.77-1.34s.61-.77,1-1.04,.88-.41,1.47-.41c.63,0,1.15,.13,1.56,.4,.41,.27,.74,.61,1.01,1.02,.27,.41,.5,.84,.71,1.29,.19,.4,.38,.77,.59,1.12,.2,.35,.45,.63,.74,.85,.29,.22,.67,.33,1.12,.33h0v2.63h0c-.42,0-.82-.06-1.2-.18-.38-.12-.7-.31-.97-.58-.27-.26-.47-.61-.6-1.03-.15,.59-.47,1.05-.98,1.38-.5,.33-1.09,.5-1.77,.5-.59,0-1.15-.12-1.71-.38-.55-.25-.98-.58-1.3-1-.34,.4-.73,.71-1.17,.94-.44,.23-.98,.34-1.61,.34-.12,0-.21-.09-.27-.26s-.09-.53-.09-1.05,.03-.88,.09-1.05,.15-.26,.27-.26c.4,0,.74-.11,1.01-.32Zm3.95,.22c.3,.13,.58,.19,.84,.19,.22,0,.43-.08,.63-.23,.2-.15,.29-.39,.29-.71,0-.31-.05-.58-.16-.82-.11-.24-.25-.42-.41-.56s-.34-.2-.53-.2c-.17,0-.32,.04-.47,.12s-.3,.22-.45,.43-.3,.5-.44,.88l-.14,.33c.27,.25,.55,.44,.85,.57Z"/>
    <path class="cls-2" d="M341.97,383.05c.23,0,.43,0,.6-.03,.17-.02,.33-.05,.5-.09-.17-.19-.32-.4-.46-.62-.14-.22-.26-.46-.34-.71-.09-.25-.13-.51-.13-.77,0-.33,.05-.64,.15-.96s.24-.61,.42-.9c.18-.29,.41-.54,.68-.77l-.97-.42,1.04-2.43,5.09,2.19c1.05,.45,1.91,.91,2.57,1.38,.66,.47,1.14,.99,1.45,1.54s.46,1.19,.46,1.89c0,.62-.15,1.18-.44,1.7-.29,.52-.71,.93-1.27,1.24-.56,.31-1.24,.47-2.05,.47-.7,0-1.35-.09-1.95-.27-.6-.18-1.18-.4-1.73-.67-.46,.26-1,.46-1.62,.62-.62,.15-1.23,.23-1.85,.23h-.84c-.11,0-.2-.09-.26-.27-.06-.18-.09-.53-.09-1.05s.03-.88,.09-1.05c.06-.18,.15-.26,.26-.26h.69Zm4.57-1.34c.22-.28,.32-.6,.32-.98s-.09-.68-.26-.93-.45-.37-.83-.37c-.24,0-.45,.07-.63,.2-.18,.13-.32,.31-.41,.53-.1,.22-.15,.46-.15,.71,0,.22,.05,.43,.15,.61,.1,.19,.22,.35,.38,.5,.16,.15,.34,.29,.53,.41,.38-.18,.68-.41,.9-.69Zm2.09,1.36c.24,.04,.47,.06,.69,.06,.33,0,.6-.07,.82-.2,.22-.13,.33-.37,.33-.71,0-.22-.06-.42-.17-.62-.11-.2-.29-.39-.53-.57s-.56-.35-.94-.52c.1,.47,.07,.92-.11,1.35-.17,.43-.43,.79-.77,1.07,.22,.06,.45,.11,.69,.15Z"/>
  </g>
  <g>
    <path class="cls-2" d="M392.74,456.43h-.06l-22.53,.12c-3.25,.02-5.95-2.18-6.3-5.11l-2.27-18.87c-.14-1.13,.21-2.25,.93-3.15,.82-1.01,2.08-1.65,3.46-1.77h0c1.89-.16,4.51-.41,7.39-.7,6.26-.62,13.37-1.34,17.53-1.44h.08c2.99-.04,5.58,1.73,6.34,4.37,1.24,4.33,1.26,12.54,1.17,21.3-.02,2.86-2.6,5.21-5.75,5.25Zm-26.61-26.94c-.89,.08-1.67,.47-2.18,1.09-.41,.51-.62,1.13-.54,1.77l2.27,18.87c.25,2,2.16,3.5,4.47,3.48l22.53-.12h.04c2.16-.04,3.91-1.57,3.93-3.46,.08-8.61,.08-16.68-1.09-20.78-.51-1.81-2.49-3.13-4.61-3.03-4.1,.1-11.47,.84-17.4,1.44-2.88,.33-5.5,.58-7.42,.74h0Z"/>
    <path class="cls-15" d="M368.58,431.34c4.74-.39,14.99-1.59,19.88-1.73,2.06-.06,3.89,1.17,4.41,2.95,.99,3.46,.97,10.4,.91,16.81-.02,1.92-1.75,3.48-3.91,3.48l-18,.1c-2.2,.02-4.08-1.46-4.3-3.44l-1.81-15.08c-.19-1.52,1.09-2.95,2.84-3.09Z"/>
    <path class="cls-16" d="M369.59,434.3h0c1.65-1.01,3.81-.45,4.78,1.24l4.55,7.91c.45,.78,1.63,.72,1.98-.12l10.65-24.7c.54-1.24,2.37-.84,2.37,.49,0,7.5-1.77,21.79-13.59,33.92,0,0-6.65-2.47-12.13-14.07-.78-1.71-.19-3.73,1.4-4.68Z"/>
  </g>
  <g>
    <path class="cls-2" d="M219.19,442.11c.28,.67,.59,1.12,.91,1.35,.32,.23,.76,.35,1.3,.35h.09v2.63h-.13c-.72,0-1.38-.13-1.97-.38-.59-.25-1.07-.68-1.45-1.29-.36,.6-.87,1.04-1.53,1.33s-1.36,.43-2.11,.43c-.64,0-1.27-.11-1.91-.32-.64-.21-1.21-.53-1.71-.96l1.14-2.09c.38,.25,.78,.44,1.21,.56,.42,.12,.83,.18,1.23,.18,.49,0,.94-.08,1.35-.23,.41-.16,.76-.41,1.06-.75l-2.16-4.9,2.43-1.16,2.25,5.26Z"/>
    <path class="cls-2" d="M221.02,447.74l1.62,1.62-1.62,1.62-1.62-1.62,1.62-1.62Zm4.98-6.97c.1,.62,.15,1.19,.15,1.72,0,.8-.15,1.49-.44,2.09-.29,.6-.76,1.06-1.39,1.38-.64,.33-1.47,.49-2.49,.49h-.32c-.12,0-.21-.09-.27-.26-.06-.18-.09-.53-.09-1.05s.03-.88,.09-1.05c.06-.18,.15-.26,.27-.26h.32c.61,0,1.05-.13,1.33-.4,.28-.27,.41-.68,.41-1.24,0-.33-.04-.72-.12-1.17s-.19-.95-.32-1.52l2.48-.67c.17,.69,.3,1.34,.4,1.96Zm-1.99,6.97l1.62,1.62-1.62,1.62-1.62-1.62,1.62-1.62Z"/>
    <path class="cls-2" d="M234.62,444.52c-.28,.47-.65,.85-1.11,1.14-.46,.29-.98,.5-1.56,.64s-1.16,.2-1.76,.2c-.54,0-1.08-.04-1.61-.11-.53-.07-1.01-.17-1.45-.3l.59-2.5c.27,.07,.63,.13,1.06,.2,.43,.06,.87,.09,1.32,.09,.4,0,.79-.04,1.14-.11,.36-.07,.65-.2,.87-.39,.22-.19,.33-.44,.33-.77,0-.42-.25-.97-.73-1.66-.49-.69-1.2-1.44-2.12-2.23l1.7-2.01c.72,.62,1.36,1.25,1.92,1.9,.56,.65,1.01,1.32,1.33,2.02,.33,.7,.49,1.43,.49,2.19,0,.66-.14,1.23-.41,1.69Z"/>
    <path class="cls-2" d="M240.05,439.85c.32,1.03,.58,1.97,.76,2.81s.27,1.62,.27,2.35c0,1-.2,1.9-.59,2.7-.39,.8-1.01,1.51-1.85,2.14-.84,.63-1.94,1.19-3.29,1.68l-1.15-2.37c1.02-.36,1.84-.73,2.46-1.12s1.07-.82,1.35-1.31c.28-.49,.42-1.06,.42-1.72,0-.54-.08-1.18-.23-1.91s-.38-1.53-.67-2.4l2.5-.85Zm-1.32-4.8l1.62,1.62-1.62,1.62-1.62-1.62,1.62-1.62Z"/>
    <path class="cls-2" d="M245.39,434.03v8.15c0,.6,.12,1.03,.38,1.27,.25,.25,.74,.37,1.46,.37v2.63c-1.41,0-2.51-.35-3.3-1.06-.79-.71-1.18-1.76-1.18-3.16v-8.2h2.64Z"/>
    <path class="cls-2" d="M248.44,447.74l1.62,1.62-1.62,1.62-1.62-1.62,1.62-1.62Zm3.3-6.97c.1,.62,.15,1.19,.15,1.72,0,.8-.15,1.49-.44,2.09-.29,.6-.76,1.06-1.39,1.38-.64,.33-1.47,.49-2.49,.49h-.32c-.12,0-.21-.09-.27-.26-.06-.18-.09-.53-.09-1.05s.03-.88,.09-1.05c.06-.18,.15-.26,.27-.26h.32c.61,0,1.05-.13,1.33-.4,.28-.27,.41-.68,.41-1.24,0-.33-.04-.72-.12-1.17s-.19-.95-.32-1.52l2.48-.67c.17,.69,.3,1.34,.4,1.96Z"/>
    <path class="cls-2" d="M261.17,439.85c.32,1.03,.58,1.97,.76,2.81s.27,1.62,.27,2.35c0,1-.2,1.9-.59,2.7-.39,.8-1.01,1.51-1.85,2.14-.84,.63-1.94,1.19-3.29,1.68l-1.15-2.37c1.02-.36,1.84-.73,2.46-1.12s1.07-.82,1.35-1.31c.28-.49,.42-1.06,.42-1.72,0-.54-.08-1.18-.23-1.91s-.38-1.53-.67-2.4l2.5-.85Z"/>
    <path class="cls-2" d="M270.76,444.52c-.28,.47-.65,.85-1.11,1.14-.46,.29-.98,.5-1.56,.64s-1.16,.2-1.76,.2c-.54,0-1.08-.04-1.61-.11-.53-.07-1.01-.17-1.45-.3l.59-2.5c.27,.07,.63,.13,1.06,.2,.43,.06,.87,.09,1.32,.09,.4,0,.79-.04,1.14-.11,.36-.07,.65-.2,.87-.39,.22-.19,.33-.44,.33-.77,0-.42-.25-.97-.73-1.66-.49-.69-1.2-1.44-2.12-2.23l1.7-2.01c.72,.62,1.36,1.25,1.92,1.9,.56,.65,1.01,1.32,1.33,2.02,.33,.7,.49,1.43,.49,2.19,0,.66-.14,1.23-.41,1.69Z"/>
    <path class="cls-2" d="M278.82,434.03v8.15c0,.6,.12,1.03,.38,1.27,.25,.25,.74,.37,1.46,.37v2.63c-1.41,0-2.51-.35-3.3-1.06-.79-.71-1.18-1.76-1.18-3.16v-8.2h2.64Z"/>
    <path class="cls-2" d="M281.67,443.5c.28-.21,.52-.49,.72-.83s.4-.7,.6-1.08c.24-.47,.5-.91,.77-1.34,.27-.42,.61-.77,1-1.04,.39-.27,.88-.41,1.47-.41,.63,0,1.15,.13,1.56,.4,.41,.27,.75,.61,1.01,1.02,.27,.41,.5,.84,.71,1.29,.19,.4,.38,.77,.59,1.12,.2,.35,.45,.63,.74,.85,.29,.22,.67,.33,1.12,.33h0v2.63h0c-.42,0-.82-.06-1.2-.18-.38-.12-.7-.31-.97-.58-.27-.26-.47-.61-.6-1.03-.15,.59-.47,1.05-.98,1.38-.5,.33-1.09,.5-1.77,.5-.59,0-1.16-.12-1.71-.38-.55-.25-.98-.58-1.3-1-.34,.4-.73,.71-1.17,.94-.44,.23-.98,.34-1.61,.34-.12,0-.21-.09-.27-.26-.06-.18-.09-.53-.09-1.05s.03-.88,.09-1.05c.06-.18,.15-.26,.27-.26,.4,0,.74-.11,1.01-.32Zm3.95,.22c.3,.13,.58,.19,.84,.19,.22,0,.43-.08,.63-.23,.2-.15,.29-.39,.29-.71,0-.31-.05-.58-.16-.82-.11-.24-.25-.42-.42-.56-.17-.13-.34-.2-.53-.2-.17,0-.32,.04-.47,.12s-.3,.22-.45,.43c-.15,.21-.3,.5-.44,.88l-.14,.33c.27,.25,.55,.44,.85,.57Z"/>
    <path class="cls-2" d="M298.58,443.54c.19-.2,.3-.52,.34-.95l.15-1.92,2.29,.16-.11,1.74c-.03,.43,.04,.75,.21,.95s.44,.3,.81,.3c.66,0,.98-.39,.98-1.16,0-.16-.01-.37-.03-.63-.02-.26-.06-.55-.1-.88-.05-.33-.1-.66-.16-1.02l2.55-.61c.07,.34,.14,.68,.19,1.04,.05,.36,.09,.71,.12,1.06s.04,.68,.04,.99c0,1.29-.26,2.25-.77,2.88-.51,.63-1.3,.95-2.35,.95-.67,0-1.22-.13-1.65-.38s-.74-.62-.92-1.09c-.36,.99-1.18,1.48-2.44,1.48-.64,0-1.17-.13-1.57-.39-.4-.26-.69-.64-.85-1.15-.25,.47-.64,.84-1.18,1.12s-1.14,.42-1.82,.42h-.32c-.13,0-.22-.11-.27-.33-.06-.22-.09-.56-.09-1.03s.03-.78,.08-.98c.05-.2,.15-.3,.28-.3h.32c.62,0,1.08-.13,1.38-.39,.3-.26,.48-.71,.53-1.33l.16-1.89,2.63,.2-.18,2.05c-.04,.43,.02,.77,.18,1s.42,.35,.78,.37c.34,.02,.61-.08,.8-.28Zm-.05-7.74l1.62,1.62-1.62,1.62-1.62-1.62,1.62-1.62Zm1.5-2.82l1.62,1.62-1.62,1.62-1.62-1.62,1.62-1.62Zm1.5,2.82l1.62,1.62-1.62,1.62-1.62-1.62,1.62-1.62Z"/>
    <path class="cls-2" d="M311.94,446.13c-.51-.28-.91-.64-1.18-1.1-.28-.46-.42-.96-.42-1.51,0-.51,.08-1,.23-1.47,.15-.47,.38-.93,.68-1.37,.3-.44,.67-.88,1.1-1.31-.12-.12-.26-.25-.41-.38s-.3-.27-.46-.41l1.57-1.88c.5,.4,1,.84,1.5,1.34,.5,.49,.97,1.02,1.39,1.59,.42,.56,.76,1.15,1.01,1.77,.25,.62,.38,1.25,.38,1.9,0,.6-.15,1.14-.46,1.64-.31,.49-.73,.88-1.26,1.18-.54,.29-1.15,.44-1.83,.44-.72,0-1.33-.14-1.85-.41Zm2.66-2.48c.18-.17,.27-.4,.27-.68,0-.3-.08-.62-.25-.99-.17-.36-.45-.72-.83-1.07-.38,.35-.66,.71-.83,1.07-.17,.37-.26,.7-.26,.99,0,.27,.09,.5,.27,.67,.18,.17,.46,.26,.82,.26s.63-.08,.81-.26Z"/>
    <path class="cls-2" d="M318.96,446.45v-12.42h2.63v12.42h-2.63Z"/>
    <path class="cls-2" d="M327.16,439.85l.58,1.91c.18,.59,.35,1.03,.51,1.32,.17,.29,.38,.49,.65,.59,.27,.1,.63,.15,1.11,.15h0v2.63h0c-.41,0-.77-.05-1.1-.15-.33-.1-.61-.25-.84-.47-.09,.87-.35,1.65-.77,2.35-.42,.69-1.03,1.31-1.83,1.86-.79,.55-1.79,1.04-3,1.49l-1.15-2.37c1.02-.36,1.84-.73,2.46-1.12s1.07-.83,1.35-1.31c.28-.49,.42-1.06,.42-1.73,0-.54-.08-1.17-.23-1.9-.15-.73-.38-1.53-.67-2.39l2.5-.85Z"/>
    <path class="cls-2" d="M331.03,443.5c.28-.21,.52-.49,.72-.83s.4-.7,.6-1.08c.24-.47,.5-.91,.77-1.34,.27-.42,.61-.77,1-1.04,.39-.27,.88-.41,1.47-.41,.63,0,1.15,.13,1.56,.4,.41,.27,.75,.61,1.01,1.02,.27,.41,.5,.84,.71,1.29,.19,.4,.38,.77,.59,1.12,.2,.35,.45,.63,.74,.85s.67,.33,1.12,.33h0v2.63h0c-.42,0-.82-.06-1.2-.18-.38-.12-.7-.31-.97-.58-.27-.26-.47-.61-.6-1.03-.15,.59-.47,1.05-.98,1.38-.5,.33-1.09,.5-1.77,.5-.59,0-1.16-.12-1.71-.38-.55-.25-.98-.58-1.3-1-.34,.4-.73,.71-1.17,.94-.44,.23-.98,.34-1.61,.34-.12,0-.21-.09-.27-.26s-.09-.53-.09-1.05,.03-.88,.09-1.05,.15-.26,.27-.26c.4,0,.74-.11,1.01-.32Zm3.94,.22c.3,.13,.58,.19,.84,.19,.22,0,.43-.08,.63-.23,.2-.15,.29-.39,.29-.71,0-.31-.05-.58-.16-.82-.11-.24-.25-.42-.41-.56s-.34-.2-.53-.2c-.16,0-.32,.04-.47,.12-.15,.08-.3,.22-.45,.43s-.3,.5-.45,.88l-.14,.33c.27,.25,.55,.44,.85,.57Z"/>
    <path class="cls-2" d="M342.02,443.81c.23,0,.43,0,.6-.03,.17-.02,.33-.05,.5-.09-.17-.19-.32-.4-.46-.62-.14-.22-.26-.46-.34-.71-.09-.25-.13-.51-.13-.77,0-.33,.05-.64,.15-.96s.24-.61,.42-.9c.18-.29,.41-.54,.68-.77l-.97-.42,1.04-2.43,5.09,2.19c1.05,.45,1.91,.91,2.57,1.38,.66,.47,1.14,.99,1.45,1.54s.46,1.19,.46,1.89c0,.62-.15,1.18-.44,1.7-.29,.52-.71,.93-1.27,1.24-.56,.31-1.24,.47-2.05,.47-.7,0-1.35-.09-1.95-.27-.6-.18-1.18-.4-1.73-.67-.46,.26-1,.46-1.62,.62-.62,.15-1.23,.23-1.85,.23h-.84c-.11,0-.2-.09-.26-.27-.06-.18-.09-.53-.09-1.05s.03-.88,.09-1.05c.06-.18,.15-.26,.26-.26h.69Zm4.57-1.34c.22-.28,.32-.6,.32-.98s-.09-.68-.26-.93-.45-.37-.83-.37c-.24,0-.45,.07-.63,.2-.18,.13-.32,.31-.41,.53-.1,.22-.15,.46-.15,.71,0,.22,.05,.43,.15,.61,.1,.19,.22,.35,.38,.5,.16,.15,.34,.29,.53,.41,.38-.18,.68-.41,.9-.69Zm2.09,1.36c.24,.04,.47,.06,.69,.06,.33,0,.6-.07,.82-.2,.22-.13,.33-.37,.33-.71,0-.22-.06-.42-.17-.62-.11-.2-.29-.39-.53-.57s-.56-.35-.94-.52c.1,.47,.07,.92-.11,1.35-.17,.43-.43,.79-.77,1.07,.22,.06,.45,.11,.69,.15Z"/>
  </g>
</svg>